<?xml version="1.0" standalone="no"?><!DOCTYPE svg PUBLIC "-//W3C//DTD SVG 1.1//EN" "http://www.w3.org/Graphics/SVG/1.1/DTD/svg11.dtd"><svg t="1535525870523" class="icon" style="" viewBox="0 0 1024 1024" version="1.1" xmlns="http://www.w3.org/2000/svg" p-id="7301" xmlns:xlink="http://www.w3.org/1999/xlink" width="128" height="128"><defs><style type="text/css"></style></defs><path d="M827.355081 444.039186l-103.778146 14.917567c-22.781846 53.310567-49.374815 98.753243-65.451974 124.329311-32.038721 51.018475-113.10185 169.647357-173.642715 169.647356-55.667684 0-146.93776-105.95464-210.444435-229.346522l-83.454564 11.989685-97.954894 22.850482v366.079142s351.251886-71.930884 367.368782-68.620083a39496.714783 39496.714783 0 0 1 220.421993 45.735283l244.883622-137.252811V375.395622l-97.947669 68.643564z" p-id="7302" fill="#1296db"></path><path d="M484.261888 682.487249c50.510927-29.981437 208.378121-249.95368 208.37812-398.594705 0-107.244281-93.372515-194.497324-208.166793-194.497324-114.77441 0-208.157762 87.25485-208.157762 194.497324-0.001806 154.29991 156.546847 369.397167 207.946435 398.594705m-73.249424-398.578449c0-37.907128 32.894869-68.627308 73.458945-68.627308 40.592976 0 73.487845 30.720181 73.487845 68.627308 0 37.914353-32.894869 68.650789-73.487845 68.650789-40.564077 0-73.458946-30.736437-73.458945-68.650789" p-id="7303" fill="#1296db"></path></svg>