<?xml version="1.0" standalone="no"?><!DOCTYPE svg PUBLIC "-//W3C//DTD SVG 1.1//EN" "http://www.w3.org/Graphics/SVG/1.1/DTD/svg11.dtd"><svg t="1535510279645" class="icon" style="" viewBox="0 0 1024 1024" version="1.1" xmlns="http://www.w3.org/2000/svg" p-id="4520" xmlns:xlink="http://www.w3.org/1999/xlink" width="128" height="128"><defs><style type="text/css"></style></defs><path d="M911.4772501069958 16.78909945679023H112.52274989300412c-50.814942288065836 0-92.24016697942385 41.425224691358025-92.24016697942385 92.24016697942385v184.3422498765432c0 50.814942288065836 41.287140609053495 92.24016697942385 92.24016697942385 92.24016697942385h25.95980747325103v526.376521744856c0 50.814942288065836 41.287140609053495 92.24016697942385 92.24016697942385 92.24016697942385h562.8307194732511c50.814942288065836 0 92.24016697942385-41.287140609053495 92.24016697942385-92.24016697942385V385.6116832921811h25.95980747325103c50.814942288065836 0 92.24016697942385-41.287140609053495 92.24016697942385-92.24016697942385V109.02926643621403c-0.2761681646090535-50.95302637037037-41.563308773662555-92.24016697942385-92.51633514403292-92.24016697942385zM793.4153597366255 942.7809553909464H230.58464026337447c-16.98434212345679 0-30.79275035390947-13.808408230452672-30.79275035390947-30.79275035390947V231.92409968724277H824.0700260082303v680.0641053497943c0 16.98434212345679-13.808408230452672 30.79275035390947-30.65466627160494 30.79275035390947z m148.85464072427985-649.4094390781892c0 16.98434212345679-13.808408230452672 30.79275035390947-30.79275035390947 30.79275035390947h-25.95980747325103v-93.20675555555555c14.636912724279835-2.3474293991769546 25.95980747325103-14.498828641975308 25.95980747325103-29.82616177777778 0-16.98434212345679-13.808408230452672-30.79275035390947-30.79275035390947-30.79275035390947H143.17741616460904c-16.98434212345679 0-30.79275035390947 13.808408230452672-30.79275035390947 30.79275035390947 0 15.32733313580247 11.32289474897119 27.3406482962963 25.95980747325103 29.82616177777778V324.1642666666666h-25.95980747325103c-16.98434212345679 0-30.79275035390947-13.808408230452672-30.79275035390947-30.79275035390947V109.02926643621403c0-16.98434212345679 13.808408230452672-30.79275035390947 30.79275035390947-30.79275035390947h799.0925842962965c16.98434212345679 0 30.79275035390947 13.808408230452672 30.79275035390947 30.79275035390947v184.3422498765432z m0 0" p-id="4521" fill="#FE7B09"></path><path d="M652.983848032922 609.1698125432098H372.1208246255143c-19.331771522633744 0-35.21144098765432-15.879669465020575-35.21144098765432-35.21144098765432s15.879669465020575-35.21144098765432 35.21144098765432-35.21144098765432h280.8630234074074c19.331771522633744 0 35.21144098765432 15.879669465020575 35.21144098765432 35.21144098765432 0 19.46985560493827-15.879669465020575 35.21144098765432-35.21144098765432 35.21144098765432zM652.983848032922 749.6013242469136H372.1208246255143c-19.331771522633744 0-35.21144098765432-15.879669465020575-35.21144098765432-35.21144098765432s15.879669465020575-35.21144098765432 35.21144098765432-35.21144098765432h280.8630234074074c19.331771522633744 0 35.21144098765432 15.879669465020575 35.21144098765432 35.21144098765432s-15.879669465020575 35.21144098765432-35.21144098765432 35.21144098765432z" p-id="4522" fill="#FE7B09"></path><path d="M477.34089534156374 853.9928904691359V573.2679511440327c0-19.331771522633744 15.879669465020575-35.21144098765432 35.21144098765432-35.21144098765432s35.21144098765432 15.879669465020575 35.21144098765432 35.21144098765432v280.8630234074074c0 19.331771522633744-15.879669465020575 35.21144098765432-35.21144098765432 35.21144098765432-19.331771522633744-0.13808408230452676-35.21144098765432-15.879669465020575-35.21144098765432-35.34952506995885z" p-id="4523" fill="#FE7B09"></path><path d="M491.287387654321 555.5931886090534L348.6465306337448 412.9523315884774c-13.67032414814815-13.67032414814815-13.67032414814815-36.039945481481475 0-49.84835371193415 13.67032414814815-13.67032414814815 36.039945481481475-13.67032414814815 49.84835371193415 0l142.64085702057614 142.64085702057614c13.67032414814815 13.67032414814815 13.67032414814815 36.039945481481475 0 49.84835371193415-13.67032414814815 13.67032414814815-36.178029563786005 13.67032414814815-49.84835371193415 0z" p-id="4524" fill="#FE7B09"></path><path d="M483.96893129218097 505.7448348971194L626.6097883127571 363.1039778765432c13.67032414814815-13.67032414814815 36.039945481481475-13.67032414814815 49.84835371193415 0 13.67032414814815 13.67032414814815 13.67032414814815 36.039945481481475 0 49.84835371193415L533.8172850041151 555.5931886090534c-13.67032414814815 13.67032414814815-36.039945481481475 13.67032414814815-49.84835371193415 0-13.67032414814815-13.808408230452672-13.67032414814815-36.178029563786005 0-49.84835371193415z" p-id="4525" fill="#FE7B09"></path></svg>