<?xml version="1.0" standalone="no"?><!DOCTYPE svg PUBLIC "-//W3C//DTD SVG 1.1//EN" "http://www.w3.org/Graphics/SVG/1.1/DTD/svg11.dtd"><svg t="1535527313671" class="icon" style="" viewBox="0 0 1024 1024" version="1.1" xmlns="http://www.w3.org/2000/svg" p-id="10429" xmlns:xlink="http://www.w3.org/1999/xlink" width="128" height="128"><defs><style type="text/css"></style></defs><path d="M943.098 388.291c-3.055-5.038-7.49-9.338-13.134-12.194l-76.22-38.294-70.353-35.368 95.988-191.713c6.45-12.867-4.132-31.243-23.649-41.017-19.516-9.775-40.58-7.256-47.029 5.644l-95.926 191.588-63.57-31.957-98.86-49.683c-0.438-0.234-0.909-0.404-1.379-0.605-0.536-0.235-1.008-0.47-1.547-0.672-0.47-0.2-0.94-0.37-1.476-0.503-0.537-0.168-1.043-0.37-1.58-0.539-0.503-0.134-1.005-0.201-1.512-0.336-0.538-0.102-1.075-0.27-1.613-0.337-0.504-0.101-1.005-0.134-1.546-0.202l-1.612-0.201c-0.47-0.034-1.005 0-1.512-0.034-0.535 0-1.075-0.034-1.579 0-0.535 0-1.043 0.034-1.546 0.101-0.535 0.034-1.076 0.034-1.58 0.102-0.502 0.066-1.005 0.168-1.512 0.268-0.537 0.101-1.043 0.169-1.545 0.269a79.31 79.31 0 0 0-1.478 0.403c-0.503 0.134-1.006 0.268-1.546 0.436-0.47 0.169-0.941 0.337-1.41 0.537-0.47 0.17-0.975 0.337-1.478 0.538-0.437 0.235-0.874 0.47-1.344 0.672l-1.411 0.706c-0.47 0.268-0.874 0.537-1.308 0.806-0.439 0.268-0.909 0.538-1.38 0.84-0.404 0.301-0.806 0.638-1.21 0.94-0.405 0.3-0.874 0.638-1.277 0.974-0.403 0.335-0.739 0.705-1.141 1.076a11.47 11.47 0 0 0-1.142 1.075c-0.403 0.37-0.74 0.806-1.074 1.21-0.368 0.405-0.741 0.772-1.043 1.174-0.37 0.436-0.671 0.908-0.974 1.378-0.336 0.404-0.638 0.84-0.908 1.277-0.303 0.47-0.572 0.974-0.874 1.477-0.234 0.436-0.503 0.807-0.704 1.243-23.515 45.719-53.145 88.885-88.55 128.994-0.504 0.572-1.008 1.108-1.478 1.713-22.641 25.462-47.566 49.75-74.743 72.693C271.49 462.563 188.616 510.67 96.002 545.738c-13.639 5.176-21.767 18.612-20.76 32.517a32.289 32.289 0 0 0 15.385 29.762L646.546 947.77a32.45 32.45 0 0 0 12.765 4.468 32.288 32.288 0 0 0 18.544 5.877c8.164 0 16.358-3.09 22.64-9.237 78.17-76.725 139.542-162.821 182.44-255.939 43.401-94.124 65.571-190.435 65.907-286.138a32.15 32.15 0 0 0-5.744-18.51z m-118.843 277.61c-36.716 79.647-88.247 153.888-153.316 221.006l-122.813-75.048 77.128-75.447c12.766-12.463 13-32.922 0.503-45.685-12.498-12.768-32.92-13.002-45.686-0.506l-88.819 86.87-144.447-88.279 87.206-61.138c14.647-10.212 18.175-30.37 7.929-45.015-10.212-14.578-30.368-18.14-45.013-7.892l-110.284 77.295-112.5-68.73c77.464-34.87 147.873-78.841 209.884-131.144 22.91-19.383 44.408-39.606 64.397-60.703L844.41 617.627a713.555 713.555 0 0 1-20.155 48.273z m40.209-111.257L491.656 341.736c21.433-27.077 40.648-55.327 57.58-84.653l334.579 168.164c-1.548 43.065-8.064 86.3-19.351 129.397z" fill="#41B035" p-id="10430"></path></svg>