<?xml version="1.0" standalone="no"?><!DOCTYPE svg PUBLIC "-//W3C//DTD SVG 1.1//EN" "http://www.w3.org/Graphics/SVG/1.1/DTD/svg11.dtd"><svg t="1535441174605" class="icon" style="" viewBox="0 0 1025 1024" version="1.1" xmlns="http://www.w3.org/2000/svg" p-id="4818" xmlns:xlink="http://www.w3.org/1999/xlink" width="128.125" height="128"><defs><style type="text/css"></style></defs><path d="M84.8 0L0.8 70.4c150.4 111.2 290.4 239.2 412.8 368C225.6 627.2 77.6 812.8 0 888L160.8 1021.6c56.8-116.8 180.8-295.2 346.4-481.6 166.4 187.2 290.4 366.4 348 484 0 0 156-165.6 170.4-140-60-68-207.2-264-404.8-465.6 113.6-116 240-230.4 376-331.2l-36.8-68.8C806.4 94.4 660 208 528 328 395.2 203.2 244.8 84 84.8 0z" p-id="4819" fill="#bfbfbf"></path></svg>