<?xml version="1.0" standalone="no"?><!DOCTYPE svg PUBLIC "-//W3C//DTD SVG 1.1//EN" "http://www.w3.org/Graphics/SVG/1.1/DTD/svg11.dtd"><svg t="1535426910865" class="icon" style="" viewBox="0 0 1070 1024" version="1.1" xmlns="http://www.w3.org/2000/svg" p-id="6465" xmlns:xlink="http://www.w3.org/1999/xlink" width="133.75" height="128"><defs><style type="text/css"></style></defs><path d="M779.734684 366.213804v467.470243c0 5.788179 0.343546 11.748131-0.374427 17.5035l1.10205-8.208445a42.833297 42.833297 0 0 1-2.344994 8.702534l3.111219-7.374669a42.543791 42.543791 0 0 1-5.004584 8.754645l4.827021-6.249458a42.914358 42.914358 0 0 1-7.089024 7.089024l6.249458-4.827021a42.632573 42.632573 0 0 1-8.754645 5.004584l7.374669-3.111218a42.958749 42.958749 0 0 1-8.702534 2.344994l8.208444-1.102051c-7.380459 0.922557-15.094814 0.374427-22.508083 0.374427H166.060327c-5.942582 0-12.072377 0.362847-17.986009-0.374427l8.208445 1.102051a42.866107 42.866107 0 0 1-8.702534-2.344994l7.376599 3.111218a42.50712 42.50712 0 0 1-8.756575-5.004584l6.249458 4.827021a43.062971 43.062971 0 0 1-7.089024-7.089024l4.828951 6.249458a42.640293 42.640293 0 0 1-5.006514-8.754645l3.113149 7.374669a42.958749 42.958749 0 0 1-2.344994-8.702534l1.10398 8.208445c-0.833776-6.697226-0.372497-13.680098-0.372497-20.412065V153.942617c0-8.440049-0.673583-17.254525 0.374427-25.659834l-1.10398 8.208445c0.482509-3.003137 1.252594-5.86345 2.344994-8.702534l-3.113149 7.376599a42.426059 42.426059 0 0 1 5.006514-8.756575l-4.828951 6.249458a43.062971 43.062971 0 0 1 7.089024-7.089024l-6.249458 4.828951a42.603622 42.603622 0 0 1 8.756575-5.006514l-7.376599 3.113149a42.99156 42.99156 0 0 1 8.702534-2.344995l-8.208444 1.103981c8.150543-1.017129 16.689024-0.374427 24.870448-0.374427H692.883048c16.833777 0 30.880582-14.046805 30.880582-30.880581s-14.046805-30.880582-30.880582-30.880582H156.763342c-8.231605 0-16.590592 0.658142-24.40724 3.365983C104.542349 78.121139 84.921599 103.914144 84.921599 133.721626v651.493418c0 20.662969-0.343546 41.358749 0.023161 62.019788 0.314596 17.700363 7.834018 34.393248 20.058867 47.029196 12.375393 12.790351 29.544996 19.12473 47.029196 20.056938 1.984077 0.108082 3.997105 0.02509 5.983113 0.02509h614.583403c24.594453 0 47.218339-13.25549 59.744275-34.304466 6.641255-11.16333 9.152232-24.050183 9.152233-36.879134V366.215734c0-16.833777-14.046805-30.880582-30.880582-30.880582s-30.880582 14.044874-30.880581 30.878652z" fill="#515151" p-id="6466"></path><path d="M509.529595 273.572059l-127.868768 0.318456-130.713641 0.324246H250.904725c-16.833777 0.040531-30.880582 14.015924-30.880582 30.880582 0 16.802896 14.046805 30.921112 30.880582 30.880582l127.868768-0.318456 130.713641-0.324247H509.529595c16.833777-0.040531 30.880582-14.015924 30.880582-30.880581 0-16.802896-14.046805-30.921112-30.880582-30.880582zM250.904725 520.616712h131.242471c16.833777 0 30.880582-14.046805 30.880582-30.880582s-14.046805-30.880582-30.880582-30.880581h-131.242471c-16.833777 0-30.880582 14.046805-30.880582 30.880581s14.046805 30.880582 30.880582 30.880582zM835.423952 116.635014l-58.483961 58.375879-126.687586 126.455982a7221080.964244 7221080.964244 0 0 1-166.74163 166.434754c-11.908324 11.887094-11.889024 31.781909 0 43.670932 11.904464 11.906394 31.762608 11.887094 43.670933 0l58.483961-58.375879 126.687586-126.455981a7221080.964244 7221080.964244 0 0 1 166.74163-166.434755c11.908324-11.887094 11.889024-31.781909 0-43.670932-11.904464-11.906394-31.764538-11.887094-43.670933 0z" fill="#515151" p-id="6467"></path></svg>