<?xml version="1.0" standalone="no"?><!DOCTYPE svg PUBLIC "-//W3C//DTD SVG 1.1//EN" "http://www.w3.org/Graphics/SVG/1.1/DTD/svg11.dtd"><svg t="1539668743582" class="icon" style="" viewBox="0 0 1597 1024" version="1.1" xmlns="http://www.w3.org/2000/svg" p-id="1215" xmlns:xlink="http://www.w3.org/1999/xlink" width="199.625" height="128"><defs><style type="text/css"></style></defs><path d="M1075.2 882.688H819.2c-22.528 0-38.912-18.432-38.912-40.96s18.432-40.96 38.912-40.96h217.088V120.832c0-22.528-18.432-40.96-38.912-40.96H358.4c-22.528 0-38.912 18.432-38.912 40.96s-18.432 40.96-38.912 40.96H184.32c-22.528 0-38.912-18.432-38.912-40.96S161.792 81.92 184.32 81.92h61.44c16.384-47.104 61.44-79.872 112.64-79.872h636.928c65.536 0 118.784 53.248 118.784 120.832v720.896c2.048 20.48-16.384 38.912-38.912 38.912zM540.672 882.688h-180.224c-65.536 0-118.784-53.248-118.784-120.832 0-22.528 18.432-40.96 38.912-40.96s38.912 18.432 38.912 40.96 18.432 40.96 38.912 40.96h180.224c22.528 0 38.912 18.432 38.912 40.96s-16.384 38.912-36.864 38.912z" fill="#8a8a8a" p-id="1216"></path><path d="M1517.568 882.688h-55.296c-22.528 0-38.912-18.432-38.912-40.96s18.432-40.96 38.912-40.96h55.296V550.912l-153.6-229.376h-245.76v481.28h63.488c22.528 0 38.912 18.432 38.912 40.96s-18.432 40.96-38.912 40.96h-104.448c-22.528 0-38.912-18.432-38.912-40.96V282.624c0-22.528 18.432-40.96 38.912-40.96h284.672c26.624 0 51.2 14.336 65.536 34.816l153.6 229.376c8.192 14.336 14.336 28.672 14.336 45.056v251.904c2.048 43.008-34.816 79.872-77.824 79.872zM681.984 1024c-98.304 0-180.224-81.92-180.224-180.224s79.872-180.224 180.224-180.224 180.224 81.92 180.224 180.224-81.92 180.224-180.224 180.224z m0-280.576c-55.296 0-100.352 45.056-100.352 100.352s45.056 100.352 100.352 100.352 100.352-45.056 100.352-100.352c-2.048-55.296-45.056-100.352-100.352-100.352z" fill="#8a8a8a" p-id="1217"></path><path d="M1325.056 1024c-98.304 0-180.224-81.92-180.224-180.224s79.872-180.224 180.224-180.224c98.304 0 180.224 81.92 180.224 180.224s-81.92 180.224-180.224 180.224z m0-280.576c-55.296 0-100.352 45.056-100.352 100.352s45.056 100.352 100.352 100.352 100.352-45.056 100.352-100.352-45.056-100.352-100.352-100.352zM407.552 303.104h-184.32c-22.528 0-38.912-18.432-38.912-40.96s18.432-40.96 38.912-40.96h184.32c22.528 0 38.912 18.432 38.912 40.96s-18.432 40.96-38.912 40.96zM319.488 624.64h-184.32c-22.528 0-38.912-18.432-38.912-40.96s18.432-40.96 38.912-40.96h184.32c22.528 0 38.912 18.432 38.912 40.96s-16.384 40.96-38.912 40.96zM581.632 448.512H38.912c-22.528 0-38.912-18.432-38.912-40.96s18.432-40.96 38.912-40.96h542.72c22.528 0 38.912 18.432 38.912 40.96 2.048 22.528-16.384 40.96-38.912 40.96zM1474.56 464.896H1234.944c-22.528 0-38.912-18.432-38.912-40.96s18.432-40.96 38.912-40.96H1474.56c22.528 0 38.912 18.432 38.912 40.96 2.048 22.528-16.384 40.96-38.912 40.96z" fill="#8a8a8a" p-id="1218"></path></svg>