<?xml version="1.0" standalone="no"?><!DOCTYPE svg PUBLIC "-//W3C//DTD SVG 1.1//EN" "http://www.w3.org/Graphics/SVG/1.1/DTD/svg11.dtd"><svg t="1535526487761" class="icon" style="" viewBox="0 0 1024 1024" version="1.1" xmlns="http://www.w3.org/2000/svg" p-id="8949" xmlns:xlink="http://www.w3.org/1999/xlink" width="128" height="128"><defs><style type="text/css"></style></defs><path d="M898.142435 603.91467a117.623892 117.623892 0 0 0-96.78766 53.602888 115.439449 115.439449 0 0 0-97.459796-53.602888 96.451592 96.451592 0 0 0-75.783394 33.606827 175.427634 175.427634 0 0 0-36.127338 104.853298c0 6.217263-19.323925 154.591401 197.776173 278.264522a24.196915 24.196915 0 0 0 11.762389 3.192649 23.524778 23.524778 0 0 0 12.266492-3.528717C945.023958 940.991139 1013.41385 844.371513 1011.229406 739.350181c0.168034-54.443059-29.742041-135.43551-113.086971-135.435511zM481.92189 0a308.6787 308.6787 0 0 0-136.947817 582.74237C165.177552 641.218247 16.299311 805.555628 12.60256 974.597965v8.065639A27.557598 27.557598 0 0 0 39.992123 1008.204792a27.893666 27.893666 0 0 0 27.725632-27.893666c0-180.468658 209.03446-364.129964 414.204135-364.129964A306.326223 306.326223 0 0 0 785.559567 308.006564 306.326223 306.326223 0 0 0 481.92189 0z m-3.360682 555.52084A241.297013 241.297013 0 0 1 238.944536 312.543485a239.616672 239.616672 0 1 1 479.401378 0 241.128979 241.128979 0 0 1-239.784706 242.977355z" fill="#E24B90" p-id="8950"></path></svg>