<?xml version="1.0" standalone="no"?><!DOCTYPE svg PUBLIC "-//W3C//DTD SVG 1.1//EN" "http://www.w3.org/Graphics/SVG/1.1/DTD/svg11.dtd"><svg t="1535427746577" class="icon" style="" viewBox="0 0 1034 1024" version="1.1" xmlns="http://www.w3.org/2000/svg" p-id="12334" xmlns:xlink="http://www.w3.org/1999/xlink" width="129.25" height="128"><defs><style type="text/css"></style></defs><path d="M283.656835 465.869307c-8.110891 0-15.207921-3.041584-20.784159-8.617822-11.659406-11.659406-11.152475-31.936634 1.520792-44.609901L412.924162 263.60396c6.590099-6.590099 15.207921-10.138614 23.825742-10.138613 8.110891 0 15.207921 3.041584 20.784159 8.617821 11.659406 11.659406 11.152475 31.936634-1.520793 44.609901L307.482577 455.730693c-6.590099 6.590099-15.207921 10.138614-23.825742 10.138614z" fill="#515151" p-id="12335"></path><path d="M453.985548 265.631683c9.631683 9.631683 9.124752 26.867327-1.520792 37.512871L303.934063 452.182178c-10.645545 10.645545-27.374257 11.659406-37.512872 1.520792-9.631683-9.631683-9.124752-26.867327 1.520792-37.512871l148.530693-149.037624c11.152475-10.645545 27.881188-11.659406 37.512872-1.520792z" fill="#515151" p-id="12336"></path><path d="M512.282577 1024c-185.029703 0-356.372277-99.865347-446.60594-261.069307C-72.715442 516.562376 14.983567 203.786139 260.844954 65.394059 337.391488 22.811881 423.569706 0 510.761785 0 623.300399 0 734.825152 38.019802 824.044954 106.455446c0.506931 0 1.013861 0.506931 2.027722 1.013861 13.180198 10.138614 15.714851 29.40198 5.576238 42.582178-6.083168 7.60396-14.70099 11.659406-24.332673 11.659406-5.069307 0-10.138614-1.520792-14.70099-3.548515l-1.013862 1.013862-4.055445-3.041585c-79.588119-61.845545-178.946535-96.316832-278.811881-96.316831-76.039604 0-151.572277 19.770297-218.487129 57.283168-105.441584 59.817822-180.974257 156.134653-213.417822 272.221782-32.443564 116.087129-17.742574 237.750495 41.061386 342.685149 79.588119 141.940594 230.653465 230.146535 393.885149 230.146534 77.053465 0 153.093069-20.277228 220.514851-57.790099 216.459406-121.663366 294.019802-396.419802 173.370297-612.879207l-2.027723-2.027723 0.506931-1.013862c-6.590099-14.194059-1.013861-31.429703 12.673267-39.033663 4.562376-2.534653 9.631683-4.055446 14.700991-4.055446 10.645545 0 20.784158 5.576238 26.360396 14.700991l0.50693 0.50693c138.392079 245.861386 50.693069 558.637624-195.675247 697.029703-76.546535 43.59604-163.231683 66.407921-250.423763 66.407921z" fill="#515151" p-id="12337"></path><path d="M953.819211 263.60396c-7.09703-12.166337-22.30495-16.728713-34.471287-9.631683-12.166337 6.590099-16.728713 22.30495-9.631683 34.471287 122.677228 219.50099 44.609901 497.29901-174.891089 620.483169-219.50099 123.691089-497.805941 45.623762-621.49703-174.384159-123.691089-219.50099-45.623762-497.805941 174.384158-621.497029C452.971686 20.277228 650.167726 43.089109 790.587528 152.586139l1.013861-1.013862c11.152475 8.617822 26.867327 6.590099 35.485149-4.562376 8.617822-11.152475 6.590099-26.867327-4.562376-35.485149-0.506931-0.506931-1.013861-0.506931-1.520793-0.50693C664.868716-9.124752 445.874657-32.443564 263.379607 69.956436c-243.833663 136.871287-330.518812 446.09901-193.647525 690.439604 136.871287 243.833663 446.09901 330.518812 690.439604 193.647524 243.833663-137.378218 330.518812-446.09901 193.647525-690.439604z" fill="#515151" p-id="12338"></path><path d="M283.656835 466.376238c-16.728713 0-30.415842-13.687129-30.415842-30.415842s13.687129-30.415842 30.415842-30.415842h456.237624c16.728713 0 30.415842 13.687129 30.415841 30.415842s-13.687129 30.415842-30.415841 30.415842H283.656835z" fill="#515151" p-id="12339"></path><path d="M765.240993 435.960396c0 14.194059-11.152475 25.346535-25.346534 25.346535H283.656835c-14.194059 0-25.346535-11.152475-25.346535-25.346535s11.152475-25.346535 25.346535-25.346535h456.237624c14.194059 0 25.346535 11.659406 25.346534 25.346535zM586.801389 770.534653c-8.110891 0-15.207921-3.041584-20.784158-8.617821-5.576238-5.576238-8.617822-13.687129-8.617822-22.304951 0.506931-8.110891 4.055446-16.221782 10.138614-22.30495l149.037624-149.037624c6.590099-6.590099 15.207921-10.138614 23.825742-10.138614 8.110891 0 15.207921 3.041584 20.784159 8.617822 5.576238 5.576238 8.617822 13.687129 8.617821 22.30495-0.506931 8.617822-4.055446 16.221782-10.138613 22.304951L610.627132 760.39604c-6.590099 6.590099-15.207921 10.138614-23.825743 10.138613z" fill="#515151" p-id="12340"></path><path d="M569.565746 758.368317c-9.631683-9.631683-9.124752-26.867327 1.520792-37.512871l149.037624-149.037624c10.645545-10.645545 27.374257-11.659406 37.512871-1.520792 9.631683 9.631683 9.124752 26.867327-1.520792 37.512871l-149.037624 149.037624c-11.152475 10.645545-27.881188 11.659406-37.512871 1.520792z" fill="#515151" p-id="12341"></path><path d="M283.656835 618.455446c-16.728713 0-30.415842-13.687129-30.415842-30.415842s13.687129-30.415842 30.415842-30.415842h456.237624c16.728713 0 30.415842 13.687129 30.415841 30.415842s-13.687129 30.415842-30.415841 30.415842H283.656835z" fill="#515151" p-id="12342"></path><path d="M258.3103 588.039604c0-14.194059 11.152475-25.346535 25.346535-25.346535h456.237624c14.194059 0 25.346535 11.152475 25.346534 25.346535s-11.152475 25.346535-25.346534 25.346535H283.656835c-13.687129 0-25.346535-11.152475-25.346535-25.346535z" fill="#515151" p-id="12343"></path></svg>