<?xml version="1.0" standalone="no"?><!DOCTYPE svg PUBLIC "-//W3C//DTD SVG 1.1//EN" "http://www.w3.org/Graphics/SVG/1.1/DTD/svg11.dtd"><svg t="1535427131417" class="icon" style="" viewBox="0 0 1025 1024" version="1.1" xmlns="http://www.w3.org/2000/svg" p-id="7992" xmlns:xlink="http://www.w3.org/1999/xlink" width="128.125" height="128"><defs><style type="text/css"></style></defs><path d="M460.883 293.256c8.773 8.774 8.143 23.712-1.441 33.295l-132.012 132.417c-9.539 9.628-24.432 10.303-33.25 1.529-8.773-8.773-8.144-23.711 1.441-33.294l132.012-132.461c9.583-9.584 24.476-10.258 33.25-1.485z" p-id="7993" fill="#515151"></path><path d="M904.297 291.591l-0.091-0.090c-6.073-10.753-19.752-14.669-30.595-8.549-10.844 6.074-14.668 19.797-8.594 30.686-0.045 0-0.045 0 0 0.044v0.046c108.93 194.913 39.594 441.255-155.229 550.635-195.048 109.605-441.93 40.315-551.535-154.778-109.65-195.049-40.314-441.975 154.734-551.535 146.68-82.428 321.751-62.406 446.609 34.825l0.72-0.855c0.045 0.045 0.045 0.045 0.045 0.090 9.853 7.559 23.892 5.759 31.586-4.049 7.603-9.853 5.804-23.937-4.005-31.54-0.404-0.316-0.854-0.405-1.215-0.63-138.625-106.86-332.865-127.377-495.112-36.265-216.6 121.709-293.585 395.992-171.877 612.727 121.663 216.6 396.036 293.54 612.682 171.877 216.646-121.708 293.541-396.036 171.878-612.637z" p-id="7994" fill="#515151"></path><path d="M737.054 444.57c0 12.419-10.078 22.497-22.496 22.497h-404.945c-12.419 0-22.497-10.078-22.497-22.497 0-12.418 10.078-22.496 22.497-22.496h404.945c12.418 0 22.496 10.078 22.496 22.496zM563.244 730.866c-8.774-8.773-8.144-23.711 1.44-33.294l132.506-132.417c9.583-9.629 24.477-10.304 33.251-1.485 8.773 8.774 8.144 23.712-1.44 33.295l-132.507 132.417c-9.583 9.583-24.476 10.303-33.25 1.485z" p-id="7995" fill="#515151"></path><path d="M287.116 579.552c0-12.419 10.078-22.497 22.497-22.497h404.945c12.418 0 22.496 10.078 22.496 22.496 0 12.419-10.078 22.497-22.496 22.497h-404.945c-12.419 0-22.497-10.078-22.497-22.497z" p-id="7996" fill="#515151"></path></svg>