<?xml version="1.0" standalone="no"?><!DOCTYPE svg PUBLIC "-//W3C//DTD SVG 1.1//EN" "http://www.w3.org/Graphics/SVG/1.1/DTD/svg11.dtd"><svg t="1535428026393" class="icon" style="" viewBox="0 0 1024 1024" version="1.1" xmlns="http://www.w3.org/2000/svg" p-id="16706" xmlns:xlink="http://www.w3.org/1999/xlink" width="128" height="128"><defs><style type="text/css"></style></defs><path d="M460.10387 306.702309a153.351154 153.351154 0 1 0-153.351155-153.351155 153.351154 153.351154 0 0 0 153.351155 153.351155z m0-255.377886a102.337789 102.337789 0 1 1-102.337789 102.026731 102.337789 102.337789 0 0 1 102.337789-102.337788z m331.897934 563.63548a153.351154 153.351154 0 1 0-153.351154-153.351155 153.351154 153.351154 0 0 0 153.351154 153.351155z m0-255.377886a102.337789 102.337789 0 1 1-102.337789 102.337789 102.337789 102.337789 0 0 1 102.337789-102.337789z m230.804374 461.608748a144.330498 144.330498 0 0 0-139.975699-103.893074h-213.385176a201.253949 201.253949 0 0 0-158.639125-74.653706h-96.427703c-62.211422-74.964763-162.993925-95.183475-209.963548-100.782503v-27.684082a25.506683 25.506683 0 0 0-25.506683-25.506683H25.557089a25.506683 25.506683 0 0 0-25.506682 25.506683v458.498177a25.506683 25.506683 0 0 0 25.506682 25.506683h153.351155a25.506683 25.506683 0 0 0 25.506683-25.506683v-35.149453c65.010936 31.105711 195.343864 86.473876 255.377885 86.473876 145.574727 0 531.596598-165.482382 548.082625-172.325638a25.506683 25.506683 0 0 0 14.619684-31.105711z m-869.404617 124.422844H51.063772V538.439854h102.337789z m306.702309 25.506683c-51.013366 0-190.055893-62.211422-255.377886-91.761847V591.008505c43.547995 5.910085 130.955043 25.81774 176.680437 89.584448a25.506683 25.506683 0 0 0 20.840826 10.575941h108.247874a150.55164 150.55164 0 0 1 118.201701 55.368166 124.422843 124.422843 0 0 1 24.573512 47.28068h-298.614824a25.506683 25.506683 0 0 0 0 51.013366h326.609963a25.506683 25.506683 0 0 0 25.506683-25.506683 153.351154 153.351154 0 0 0-9.020656-51.013366h184.767922A90.828676 90.828676 0 0 1 964.327442 814.347509c-86.784933 36.082625-388.510328 157.705954-504.223572 158.328068z m0 0" fill="#515151" p-id="16707"></path></svg>