<?xml version="1.0" standalone="no"?><!DOCTYPE svg PUBLIC "-//W3C//DTD SVG 1.1//EN" "http://www.w3.org/Graphics/SVG/1.1/DTD/svg11.dtd"><svg t="1535425458986" class="icon" style="" viewBox="0 0 1024 1024" version="1.1" xmlns="http://www.w3.org/2000/svg" p-id="5289" xmlns:xlink="http://www.w3.org/1999/xlink" width="128" height="128"><defs><style type="text/css"></style></defs><path d="M929.88302187 208.59259307L693.7410368 208.59259307l0 60.6814816 187.93054827 0 76.91377813 333.74814826-249.6739552 0-90.8705184 121.3629632-212.02109653 0-90.8705184-121.3629632L65.4146368 603.02222187l76.91377813-333.74814827 187.93054827 0L330.2589632 208.59259307 94.11697813 208.59259307-3.79259307 633.66637013 94.57208853 1027.79259307l834.8861632 0L1027.79259307 633.66637013 929.88302187 208.59259307zM882.0963552 967.11111147L141.9036448 967.11111147 66.14281493 663.70370347l218.6657184 0 90.8705184 121.3629632 272.6115552 0 90.8705184-121.3629632 218.6657184 0L882.0963552 967.11111147zM360.53902187 518.12882987l302.89161493 0 0-333.74814827 130.34382187 0L512-3.79259307 230.22554027 184.3806816l130.34382186 0L360.5693632 518.12882987zM421.1294816 129.82802987l90.8705184-60.6814816 90.8705184 60.6814816 0 327.6193184-181.7410368 0L421.1294816 129.82802987z" p-id="5290" fill="#515151"></path></svg>