<?xml version="1.0" standalone="no"?><!DOCTYPE svg PUBLIC "-//W3C//DTD SVG 1.1//EN" "http://www.w3.org/Graphics/SVG/1.1/DTD/svg11.dtd"><svg t="1535525787200" class="icon" style="" viewBox="0 0 1360 1024" version="1.1" xmlns="http://www.w3.org/2000/svg" p-id="5515" xmlns:xlink="http://www.w3.org/1999/xlink" width="170" height="128"><defs><style type="text/css"></style></defs><path d="M1038.277372-1.5e-05 686.041497-1.5e-05l235.592247 311.41957L1038.277372-1.5e-05zM1038.277372-1.5e-05M682.132539 950.824923l227.971395-608.585981L450.520322 342.238943 682.132539 950.824923zM682.132539 950.824923M466.453363 317.221612l428.205341 0L679.824316 33.193822 466.453363 317.221612zM466.453363 317.221612M1055.959753 23.967389l-109.793259 293.254222 287.728377 0L1055.959753 23.967389zM1055.959753 23.967389M936.733306 342.240558 682.339294 1021.412304l-258.51457-679.173361L134.27755 342.238943 682.339294 1023.999969l549.040599-681.759412L936.733306 342.240558zM936.733306 342.240558M439.059968 312.047896 673.531217-1.5e-05 326.54013-1.5e-05l-3.917034 6.010427L439.059968 312.047896zM439.059968 312.047896M414.318849 317.221612 305.782271 32.008213 121.416756 317.221612 414.318849 317.221612zM414.318849 317.221612" p-id="5516" fill="#1296db"></path></svg>