<?xml version="1.0" standalone="no"?><!DOCTYPE svg PUBLIC "-//W3C//DTD SVG 1.1//EN" "http://www.w3.org/Graphics/SVG/1.1/DTD/svg11.dtd"><svg t="1535427511666" class="icon" style="" viewBox="0 0 1024 1024" version="1.1" xmlns="http://www.w3.org/2000/svg" p-id="10800" data-spm-anchor-id="a313x.7781069.0.i17" xmlns:xlink="http://www.w3.org/1999/xlink" width="128" height="128"><defs><style type="text/css"></style></defs><path d="M393.216 664.576h126.976v-123.904H331.776V465.92c-20.48 10.752-41.472 21.504-62.464 31.744-16.384-31.744-33.28-60.416-50.176-85.504 99.328-40.448 182.272-88.064 249.856-142.848L535.04 337.92c-54.784 40.96-113.152 78.848-174.08 112.64h449.536v90.624h-188.416v123.904h292.352v90.624H357.376l35.84-91.136z m215.552-578.048c8.704 25.6 16.384 50.176 23.04 74.24h275.968v158.72h-99.328V249.856H335.872v69.632H236.544v-158.72h284.16c-5.632-19.456-12.288-39.936-18.944-61.44l107.008-12.8z m50.688 179.712c96.256 45.056 184.32 89.6 263.68 133.632l-48.128 85.504c-84.48-51.712-174.08-99.84-268.288-144.384L659.456 266.24z" fill="#d4237a" p-id="10801" data-spm-anchor-id="a313x.7781069.0.i18" class=""></path><path d="M234.496 936.96h-8.704c-9.216-0.512-15.872-8.192-15.36-17.408 0.512-9.216 8.192-15.872 17.408-15.36 23.552 1.024 37.376-3.584 49.664-16.896 14.336-15.872 26.624-44.032 40.96-81.92 30.72-81.408 61.952-177.152 74.752-215.552L182.272 547.84l-74.24 203.776c-3.072 8.704-12.8 12.8-20.992 9.728-8.704-3.072-12.8-12.8-9.728-20.992l78.848-217.088c2.56-7.68 10.752-12.288 18.432-10.24l242.688 48.128c4.608 1.024 8.704 3.584 10.752 7.68 2.56 4.096 3.072 8.704 1.536 13.312-0.512 1.536-40.96 129.536-80.896 235.008-15.872 42.496-29.696 72.704-47.616 92.16-16.896 18.944-37.888 27.648-66.56 27.648z" fill="#cc0066" p-id="10802" data-spm-anchor-id="a313x.7781069.0.i20" class="selected"></path><path d="M236.032 937.472c-19.968 2.048-43.52-9.728-43.52-9.728l-136.704-61.952s-64.512-20.48-45.056-104.448l186.88 75.776s-7.168 74.752 51.2 66.56c10.24 10.24 6.144 30.208-12.8 33.792zM322.56 671.232c-1.536 0-3.072 0-4.096-0.512l-71.68-19.456c-8.704-2.56-13.824-11.264-11.264-19.968 2.56-8.704 11.264-13.824 19.968-11.264l71.68 19.456c8.704 2.56 13.824 11.264 11.264 19.968-2.048 7.168-8.704 11.776-15.872 11.776zM293.376 742.4c-1.536 0-3.584-0.512-5.12-1.024l-71.68-23.552c-8.704-3.072-13.312-12.288-10.752-20.992 3.072-8.704 12.288-13.312 20.992-10.24l71.68 23.552c8.704 3.072 13.312 12.288 10.752 20.992-2.048 7.168-8.704 11.264-15.872 11.264zM266.752 808.96c-1.536 0-3.584-0.512-5.12-1.024l-71.68-23.552c-8.704-3.072-13.312-12.288-10.24-20.992 3.072-8.704 12.288-13.312 20.992-10.24l71.68 23.552c8.704 3.072 13.312 12.288 10.24 20.992a16.896 16.896 0 0 1-15.872 11.264zM202.752 636.928c-1.024 0-2.048 0-3.584-0.512h-1.024c-0.512 0-1.024 0-1.536-0.512-8.704-2.048-14.336-10.752-12.8-19.456 2.048-8.704 10.752-14.336 19.456-12.8 0.512 0 1.024 0 1.536 0.512h1.024c8.704 2.048 14.336 10.752 12.8 19.456-1.536 7.68-8.192 13.312-15.872 13.312zM177.152 705.024c-1.024 0-2.048 0-3.584-0.512h-1.024c-0.512 0-1.024 0-1.536-0.512-8.704-2.048-14.336-10.752-12.8-19.456 2.048-8.704 10.752-14.336 19.456-12.8 0.512 0 1.024 0 1.536 0.512h1.024c8.704 2.048 14.336 10.752 12.8 19.456-1.536 7.68-8.704 13.312-15.872 13.312zM151.04 768c-1.024 0-2.048 0-3.584-0.512h-1.024c-0.512 0-1.024 0-1.536-0.512-8.704-2.048-14.336-10.752-12.8-19.456 2.048-8.704 10.752-14.336 19.456-12.8 0.512 0 1.024 0 1.536 0.512h1.024c8.704 2.048 14.336 10.752 12.8 19.456-1.536 8.192-8.704 13.312-15.872 13.312zM431.104 784.896l-0.512-1.024c105.984-27.136 203.264-62.976 288.256-107.008 68.096-34.816 128.512-75.264 179.712-119.296 45.568-39.424 75.264-74.24 92.16-96.768 18.432-24.576 26.112-39.936 26.112-39.936l1.024 0.512s-7.68 15.36-26.112 39.936c-16.896 22.528-46.592 57.856-92.672 97.28-51.2 44.032-112.128 84.48-179.712 119.296-84.992 44.032-182.272 79.872-288.256 107.008zM872.448 645.632l-0.512-1.024c32.256-16.896 61.44-46.08 79.872-68.096 20.48-23.552 32.768-43.52 33.28-43.52l1.024 0.512s-12.8 19.968-33.28 44.032c-18.432 21.504-47.616 51.2-80.384 68.096z" fill="#cc0066" p-id="10803" data-spm-anchor-id="a313x.7781069.0.i19" class=""></path></svg>