<?xml version="1.0" standalone="no"?><!DOCTYPE svg PUBLIC "-//W3C//DTD SVG 1.1//EN" "http://www.w3.org/Graphics/SVG/1.1/DTD/svg11.dtd"><svg t="1535428285601" class="icon" style="" viewBox="0 0 1024 1024" version="1.1" xmlns="http://www.w3.org/2000/svg" p-id="17668" xmlns:xlink="http://www.w3.org/1999/xlink" width="128" height="128"><defs><style type="text/css"></style></defs><path d="M927.288889 278.755556c0-17.066667-11.377778-28.444444-28.444445-28.444445h-147.911111V227.555556c0-125.155556-102.4-227.555556-227.555555-227.555556s-227.555556 102.4-227.555556 227.555556v22.755555h-170.666666c-17.066667 0-28.444444 11.377778-28.444445 28.444445l-56.888889 711.111111c0 5.688889 0 17.066667 5.688889 22.755555 5.688889 5.688889 11.377778 11.377778 22.755556 11.377778h893.155555c5.688889 0 17.066667-5.688889 22.755556-11.377778 5.688889-5.688889 5.688889-17.066667 5.688889-22.755555L927.288889 278.755556zM347.022222 227.555556c0-96.711111 73.955556-170.666667 170.666667-170.666667s170.666667 73.955556 170.666667 170.666667v22.755555h-341.333334V227.555556zM96.711111 967.111111l56.888889-654.222222h136.533333v164.977778c0 17.066667 11.377778 28.444444 28.444445 28.444444s28.444444-11.377778 28.444444-28.444444V312.888889h341.333334v164.977778c0 17.066667 11.377778 28.444444 28.444444 28.444444s28.444444-11.377778 28.444444-28.444444V312.888889h119.466667l56.888889 654.222222H96.711111z" p-id="17669" fill="#d4237a"></path></svg>