<?xml version="1.0" standalone="no"?><!DOCTYPE svg PUBLIC "-//W3C//DTD SVG 1.1//EN" "http://www.w3.org/Graphics/SVG/1.1/DTD/svg11.dtd"><svg t="1535699754901" class="icon" style="" viewBox="0 0 1024 1024" version="1.1" xmlns="http://www.w3.org/2000/svg" p-id="2176" xmlns:xlink="http://www.w3.org/1999/xlink" width="128" height="128"><defs><style type="text/css"></style></defs><path d="M372.728026 83.763752c-1.332345 10.482749-1.658779 17.353227-0.9967 20.620643l26.922163 52.043307c8.630564 17.671475 9.627265 33.717939 2.991124 48.112788-4.659113 9.82067-18.291598 17.671475-40.873919 23.570835l-53.844326 10.800997c5.311982 11.135618 12.96222 24.223704 22.933315 39.273469 13.289678 20.302395 22.933315 31.757285 28.916587 34.370809 5.311982 1.315972 12.291954 1.315972 20.930705 0 11.965519-1.968841 19.59836-2.949168 22.933315-2.949168 0 9.174963 1.994424 17.671475 5.982248 25.53149 2.647293-2.606361 12.96222-7.860015 30.91101-15.71082 17.277502-7.860015 27.248597-11.781324 29.913287-11.781324 1.994424-0.644683 11.621688-7.860015 28.9084-21.600971 17.277502-14.395872 27.576055-22.246677 30.91101-23.570835 11.295254-5.89015 33.231869-11.44568 65.801658-16.691147 29.913287-4.575202 52.503794-6.870478 67.804269-6.870478-5.329379 10.473539-17.947767 28.154223-37.890982 53.023634-21.282722 26.846438-35.896558 41.896202-43.87323 45.163619-6.644327 3.284813-17.939581 3.611248-33.893948 0.988514-15.954367-1.968841-28.262694-0.988514-36.893258 2.940982-3.334955 1.960655-17.947767 10.482749-43.865044 25.53149-26.595728 15.71082-41.552371 24.551162-44.86993 26.511817 4.641717 5.245468 16.951067 15.392572 36.893258 30.441313 17.939581 14.404058 31.899524 24.885783 41.87062 31.42164l-16.951067 49.093115c-5.982248 9.82067-19.60757 15.71082-40.873919 17.679661l0-33.390481c0-19.640316-0.9967-31.42164-2.991124-35.351136-4.659113-11.781324-14.956643-22.581298-30.91101-32.401967l-37.890982-23.562649c-4.650927 18.333554-9.309016 47.468105-13.951757 87.386256l-7.976672 88.37477c0 9.174963-0.9967 48.774867-2.991124 118.816083-1.994424 70.057589-2.991124 108.996436-2.991124 116.847242 0 2.614547-1.994424 12.769838-5.982248 30.441313-4.659113 18.317181-6.979972 28.798906-6.979972 31.42164 0 13.088086 12.96222 32.729425 38.887682 58.913784 26.570145 25.53149 44.861744 35.678594 54.832839 30.441313 3.988848-2.622734 8.974395-8.831132 14.956643-18.651802 6.636141-11.789511 11.295254-18.995633 13.959943-21.600971 4.641717-4.591575 40.873919-9.174963 108.677165-13.750165l111.669312-6.870478c18.593474-3.929496 33.893948-15.392572 45.859467-34.370809 12.619412-20.956288 12.96222-38.293141 0.9967-52.043307-3.334955-3.929496-14.302751-8.194636-32.905434-12.761652-17.285688-3.929496-29.251208-5.89015-35.887348-5.89015 3.988848-5.89936 9.971096-17.34504 17.947767-34.370809 8.630564-18.97926 14.286378-30.441313 16.942881-34.370809 9.971096-22.246677 13.616112-41.878806 10.968819-58.913784-3.334955-18.317181-14.294564-33.709753-32.896224-46.152133-5.982248-3.921309-24.601304-8.831132-55.838749-14.722306-31.245631-5.89936-50.191122-8.178263-56.827263-6.879688-5.329379 1.324158-10.641361 6.233981-15.954367 14.730493-6.653537 10.482749-11.311627 16.691147-13.959943 18.659989-5.329379 2.622734-17.947767 9.174963-37.890982 19.632129-10.633175 5.253654-23.26896 11.463076-37.881772 18.659989l0-54.992475 0-51.05377c7.306406 1.960655 14.612813 4.583388 21.936615 7.850805 3.318582 1.324158 8.966209 4.26514 16.942881 8.840342-1.994424 7.206122-5.321192 19.97596-9.971096 38.293141-4.650927 18.333554-7.968485 31.103392-9.962909 38.293141 2.647293-5.228071 11.295254-16.691147 25.916253-34.362622 14.612813-17.017582 23.931039-27.1565 27.918863-30.441313 4.641717-1.960655 15.610536-7.850805 32.904411-17.671475 17.277502-10.465352 28.246321-17.017582 32.896224-19.640316 16.607236-7.860015 30.91101-17.671475 42.87653-29.460985 14.612813-15.048741 18.275225-27.810393 10.968819-38.293141-9.317203-5.89015-19.615757-10.465352-30.91101-13.750165 3.318582-3.921309 11.965519-17.336854 25.925463-40.253796 13.959943-24.215518 20.939915-38.301328 20.939915-42.222637 0-5.89015-2.338255-13.414521-6.979972-22.590508-4.659113-7.850805-8.646937-13.088086-11.965519-15.71082 8.630564-3.267417 17.947767-6.535857 27.918863-9.82067 1.324158 0 22.590508-3.921309 63.807235-11.781324l66.798359-11.781324c24.584931-6.535857 42.206264-14.730493 52.847625-24.551162 13.959943-12.426007 17.277502-28.136827 9.971096-47.13246-1.994424-7.850805-14.302751-17.997909-36.893258-30.441313l-45.859467-24.542976-27.918863-20.620643c-12.635785-9.15859-22.933315-14.730493-30.91101-16.691147-5.329379-0.644683-31.907711 2.622734-79.761602 9.82067-48.532343 7.206122-73.77833 10.800997-75.772754 10.800997-3.334955-20.286022-6.979972-34.69008-10.968819-43.211151-4.659113-11.119245-13.30605-21.600971-25.925463-31.42164-7.323802-6.535857-30.583552-14.386662-69.789483-23.562649l-77.775364-15.71082C374.72245 64.123436 374.060371 71.337745 372.728026 83.763752L372.728026 83.763752zM187.281407 216.321814c0.653893 28.154223 0.9967 46.152133 0.9967 54.012148 0 3.921309-3.66139 20.294209-10.968819 49.093115-7.314593 28.154223-10.30674 44.527123-8.974395 49.093115 0.662079 5.253654 9.971096 18.333554 27.918863 39.281655 17.947767 21.600971 29.913287 33.382295 35.896558 35.351136 27.248597 9.812483 47.182602 4.26514 59.818387-16.699334 9.971096-15.71082 16.280802-42.222637 18.945491-79.534428 0.653893-27.492144-2.338255-55.310723-8.974395-83.464947-8.646937-34.69008-21.282722-59.232033-37.881772-73.644277-5.982248-5.89015-18.291598-11.781324-36.893258-17.671475-17.294898-5.237281-30.583552-7.860015-39.884382-7.860015C187.281407 171.493839 187.281407 188.829669 187.281407 216.321814L187.281407 216.321814zM472.440006 735.762273c11.957333 7.214309 21.928429 10.809183 29.9051 10.809183 9.971096-1.306762 20.596084-2.949168 31.907711-4.909823 0 7.206122-1.994424 18.987447-5.982248 35.342949-4.659113 18.97926-8.646937 30.441313-11.965519 34.370809-3.988848 2.606361-15.626909 6.209422-34.898835 10.800997-17.939581 3.929496-29.9051 5.89015-35.888372 5.89015l0-55.972802 0-55.964616L472.440006 735.762273z" p-id="2177" fill="#FF6E36"></path></svg>