<?xml version="1.0" standalone="no"?><!DOCTYPE svg PUBLIC "-//W3C//DTD SVG 1.1//EN" "http://www.w3.org/Graphics/SVG/1.1/DTD/svg11.dtd"><svg t="1535427404849" class="icon" style="" viewBox="0 0 1024 1024" version="1.1" xmlns="http://www.w3.org/2000/svg" p-id="8747" xmlns:xlink="http://www.w3.org/1999/xlink" width="128" height="128"><defs><style type="text/css"></style></defs><path d="M886.980608 174.08 347.449344 174.08c-56.252416 0-101.982208 45.561856-101.982208 101.572608l0 62.736384-195.223552 112.433152-7.14752 4.755456 0.80896 1.384448 0.038912 0.13312c-4.456448 5.330944-6.883328 11.976704-6.883328 18.819072l0 312.172544c0 18.241536 13.692928 33.083392 30.517248 33.083392 16.861184 0 30.55616-14.874624 30.55616-33.183744L98.134016 493.44512l191.510528-110.51008c13.287424-4.687872 22.188032-17.16224 22.188032-31.0272l0-71.364608c0-22.194176 18.176-40.265728 40.501248-40.265728l529.723392 0c22.321152 0 40.497152 18.071552 40.497152 40.265728l0 495.099904c0 18.276352 14.872576 33.112064 33.181696 33.112064 18.315264 0 33.183744-14.86848 33.183744-33.183744L988.919808 275.652608C988.923904 219.635712 943.194112 174.08 886.980608 174.08L886.980608 174.08zM773.978112 676.595712c-63.094784 0-116.783104 44.818432-128.21504 106.8032l-231.845888-0.13312c-11.49952-61.915136-65.185792-106.668032-128.21504-106.668032-72.235008 0-131.014656 58.513408-131.014656 130.443264s58.779648 130.443264 131.014656 130.443264c58.64448 0 110.309376-39.223296 126.058496-95.56992l236.191744 0.098304c15.781888 56.281088 67.414016 95.469568 126.025728 95.469568 72.235008 0 130.97984-58.513408 130.97984-130.443264S846.211072 676.595712 773.978112 676.595712L773.978112 676.595712zM773.978112 868.583424c-34.12992 0-61.882368-27.619328-61.882368-61.544448 0-33.92512 27.752448-61.544448 61.882368-61.544448 34.125824 0 61.876224 27.619328 61.876224 61.544448C835.854336 840.962048 808.101888 868.583424 773.978112 868.583424L773.978112 868.583424zM285.700096 868.583424c-34.125824 0-61.882368-27.619328-61.882368-61.544448 0-33.92512 27.756544-61.544448 61.882368-61.544448 34.097152 0 61.847552 27.619328 61.847552 61.544448C347.547648 840.962048 319.797248 868.583424 285.700096 868.583424L285.700096 868.583424zM187.19744 582.172672c0 17.639424 14.395392 32.004096 32.135168 32.004096l124.30336-0.034816c17.50016 0 31.29344-5.224448 41.04192-15.577088 15.476736-16.42496 14.229504-39.727104 14.196736-39.860224l0-97.39264c0-17.639424-14.395392-32.004096-32.135168-32.004096-17.737728 0-32.141312 14.364672-32.141312 32.004096l0.034816 88.758272-115.36384 0C201.562112 550.168576 187.19744 564.566016 187.19744 582.172672L187.19744 582.172672zM187.19744 582.172672" p-id="8748" fill="#515151"></path></svg>