<?xml version="1.0" standalone="no"?><!DOCTYPE svg PUBLIC "-//W3C//DTD SVG 1.1//EN" "http://www.w3.org/Graphics/SVG/1.1/DTD/svg11.dtd"><svg t="1535677353661" class="icon" style="" viewBox="0 0 1024 1024" version="1.1" xmlns="http://www.w3.org/2000/svg" p-id="2523" xmlns:xlink="http://www.w3.org/1999/xlink" width="128" height="128"><defs><style type="text/css"></style></defs><path d="M64.7 98v275h144.7v555h605.2V373.1h144.7V98H64.7z m692 772.2H267.3V288.7h489.4v581.5z m144.7-555h-86.7v-43.4h29v-57.9H180.5v57.9h28.9v43.4h-86.8V155.9h778.9v159.3z" fill="#515151" p-id="2524"></path><path d="M390.3 544.1V592h84.1v36.3h-84.1v48.3h84.1v66.3h73.5v-66.3h81.4v-48.3h-81.4V592h81.4v-47.9h-65.9L656.3 385h-74.4L553 445.9c-19.4 39.9-30.5 64-33.3 72.1-1.7 5.1-3.2 9.3-4.4 12.7h-1.6c-9.4-23.4-31.9-72-67.5-145.6h-78.6l90.4 159h-67.7z" fill="#515151" p-id="2525"></path></svg>