<?xml version="1.0" standalone="no"?><!DOCTYPE svg PUBLIC "-//W3C//DTD SVG 1.1//EN" "http://www.w3.org/Graphics/SVG/1.1/DTD/svg11.dtd"><svg t="1536807325287" class="icon" style="" viewBox="0 0 1024 1024" version="1.1" xmlns="http://www.w3.org/2000/svg" p-id="1892" xmlns:xlink="http://www.w3.org/1999/xlink" width="128" height="128"><defs><style type="text/css"></style></defs><path d="M120 448 256 448 320 448 320 512 320 704.590208C320 703.938163 320.061909 704 319.809929 704L704.190074 704C703.961498 704 704 703.961914 704 704.590208L704 512 704 448 768 448 904 448 940.876256 490.144295 930.958835 512 874.958835 512 469.479417 48.594952 475.123742 42.144295 548.876258 42.144295 554.520583 48.594952 149.041167 512 93.041167 512 83.123742 490.144295 120 448 120 448ZM256 512 64 512 512 0 960 512 768 512 768 704.590208C768 739.61047 739.005677 768 704.190074 768L319.809929 768C284.568678 768 256 739.137587 256 704.590208L256 512 256 512Z" p-id="1893" fill="#1797FF"></path><path d="M256 832l512 0 0 64-512 0 0-64Z" p-id="1894" fill="#1797FF"></path><path d="M256 960l512 0 0 64-512 0 0-64Z" p-id="1895" fill="#1797FF"></path></svg>