<?xml version="1.0" standalone="no"?><!DOCTYPE svg PUBLIC "-//W3C//DTD SVG 1.1//EN" "http://www.w3.org/Graphics/SVG/1.1/DTD/svg11.dtd"><svg t="1535528764322" class="icon" style="" viewBox="0 0 1105 1024" version="1.1" xmlns="http://www.w3.org/2000/svg" p-id="12233" xmlns:xlink="http://www.w3.org/1999/xlink" width="138.125" height="128"><defs><style type="text/css"></style></defs><path d="M924.989 549.001c24.506-28.443 45.213-52.543 61.009-71.051 27.989-33.983 35.963-97.641-0.428-141.795-4.775-5.488-15.835-18.513-30.412-35.657-43.881-51.608-117.302-137.982-151.104-174.643-13.967-15.168-31.34-34.028-64.99-35.366-2.45-0.083-9.91-0.363-104.261-0.363-107.265 0-258.771 0.349-258.702 0.349-16.042 0-40.502 3.663-67.454 35.408-19.767 23.317-50.47 58.988-81.547 95.093-39.589 45.992-79.759 92.683-98.641 115.305-32.821 38.248-33.637 91.596-2.145 139.263l2.090 2.787c37.18 43.583 118.048 137.144 213.561 247.643l148.462 171.828c27.422 31.786 49.072 36.077 66.637 36.077 18.453 0 39.299-4.373 66.637-36.063l153.555-177.748c14.978-17.329 29.576-34.217 43.698-50.558l104.037-120.505zM613.946 401.514c0 0 4.237 154.895 0 154.895h-111.020c-4.237 0 0-154.895 0-154.895l-128.243-0.002-2.229-2.228c-3.668-3.668-3.668-9.614 0-13.283l180.789-180.788c3.668-3.667 9.614-3.667 13.282 0l180.788 180.789c3.668 3.668 3.668 9.614 0 13.283l-2.229 2.229h-131.138zM525.13 689.631h66.611v44.408h-66.611v-44.408zM502.926 601.309h111.020v43.914h-111.020v-43.914z" fill="#13227a" p-id="12234"></path></svg>