<?xml version="1.0" standalone="no"?><!DOCTYPE svg PUBLIC "-//W3C//DTD SVG 1.1//EN" "http://www.w3.org/Graphics/SVG/1.1/DTD/svg11.dtd"><svg t="1535525831047" class="icon" style="" viewBox="0 0 1024 1024" version="1.1" xmlns="http://www.w3.org/2000/svg" p-id="6316" xmlns:xlink="http://www.w3.org/1999/xlink" width="128" height="128"><defs><style type="text/css"></style></defs><path d="M355.3 131.1l54.7 71.1h191.3l54.7-71.1 5.5-10.9v-5.5c0-10.9-5.5-16.4-16.4-21.9 0 0-76.5-16.4-142.1-16.4S360.9 92.8 360.9 92.8c-27.5 11-5.6 38.3-5.6 38.3z m262.4 120.3H420.9C267.8 306.1 142 475.5 142 634.1c0 196.8 109.3 289.8 377.2 289.8S896.4 831 896.4 634.1c0.1-158.6-125.7-328-278.7-382.7zM655.9 656c10.9 0 21.9 10.9 21.9 21.9 0 10.9-10.9 21.9-21.9 21.9H546.6v76.5c0 10.9-10.9 21.9-21.9 21.9-10.9 0-21.9-10.9-21.9-21.9v-71.1H393.5c-10.9 0-21.9-10.9-21.9-21.9 0-10.9 10.9-21.9 21.9-21.9h109.3v-60.1H393.5c-10.9 0-21.9-10.9-21.9-21.9 0-10.9 10.9-21.9 21.9-21.9h114.8V552s-5.5 0-5.5-5.5l-87.5-103.9c-10.9-5.5-10.9-21.9 0-32.8 10.9-10.9 27.3-5.5 32.8 5.5l76.5 87.5 76.5-87.5c10.9-10.9 21.9-10.9 32.8-5.5 10.9 10.9 10.9 21.9 5.5 32.8l-87.5 103.9c0 5.5-5.5 5.5-10.9 5.5h114.8c10.9 0 21.9 10.9 21.9 21.9 0 10.9-10.9 21.9-21.9 21.9H546.6V656h109.3z m0 0" fill="#FE7B09" p-id="6317"></path></svg>