<?xml version="1.0" standalone="no"?><!DOCTYPE svg PUBLIC "-//W3C//DTD SVG 1.1//EN" "http://www.w3.org/Graphics/SVG/1.1/DTD/svg11.dtd"><svg t="1537845749955" class="icon" style="" viewBox="0 0 1024 1024" version="1.1" xmlns="http://www.w3.org/2000/svg" p-id="1968" xmlns:xlink="http://www.w3.org/1999/xlink" width="128" height="128"><defs><style type="text/css"></style></defs><path d="M512 0C229.234433 0 0 229.234433 0 512s229.234433 512 512 512 512-229.234433 512-512S794.765567 0 512 0z m0.009438 939.276977c-235.982452 0-427.276977-191.303963-427.276977-427.276977S276.026986 84.723023 512.009438 84.723023c235.963576 0 427.258101 191.303963 427.258101 427.276977S747.973014 939.276977 512.009438 939.276977z" fill="#F5C81E" p-id="1969"></path><path d="M512.009438 84.723023c-235.982452 0-427.276977 191.303963-427.276977 427.276977s191.303963 427.276977 427.276977 427.276977c235.963576 0 427.258101-191.303963 427.258101-427.276977S747.973014 84.723023 512.009438 84.723023zM512 883.282581c-210.273917 0-380.710931-170.465327-380.710931-380.720369S301.726083 121.841843 512 121.841843s380.710931 170.465327 380.710931 380.720369S722.273917 883.282581 512 883.282581z" fill="#F8DA87" p-id="1970"></path><path d="M512 121.841843c-210.273917 0-380.710931 170.465327-380.710931 380.720369S301.726083 883.282581 512 883.282581s380.710931-170.465327 380.710931-380.720369S722.273917 121.841843 512 121.841843z m160.074323 203.591963L522.15506 449.455779v33.032258h112.366304a16.100866 16.100866 0 0 1 0 32.192295H522.15506v63.110488h93.490728a16.100866 16.100866 0 0 1 0 32.211171h-93.490728v82.08988a16.100866 16.100866 0 0 1-32.201733 0v-82.08988h-91.650359a16.100866 16.100866 0 1 1 0-32.211171h91.650359v-63.110488H377.577585a16.100866 16.100866 0 0 1 0-32.192295h112.375742v-34.070415L351.633106 328.359521a16.110304 16.110304 0 0 1-1.604424-22.716756 16.110304 16.110304 0 0 1 22.716756-1.594986l134.026027 116.34905 144.775669-119.765529a16.100866 16.100866 0 0 1 20.527189 24.802506z" fill="#F5C81E" p-id="1971"></path></svg>