<?xml version="1.0" standalone="no"?><!DOCTYPE svg PUBLIC "-//W3C//DTD SVG 1.1//EN" "http://www.w3.org/Graphics/SVG/1.1/DTD/svg11.dtd"><svg t="1536659508764" class="icon" style="" viewBox="0 0 1024 1024" version="1.1" xmlns="http://www.w3.org/2000/svg" p-id="5117" xmlns:xlink="http://www.w3.org/1999/xlink" width="128" height="128"><defs><style type="text/css"></style></defs><path d="M869.700775 686.685531 869.700775 686.685531c-0.107447-3.977591-1.350764-7.966439-3.812839-11.461029l-3.470031-4.924149c-3.189645-5.684466-6.970762-11.06501-11.31265-16.053628L493.939669 147.458423c-0.039909-0.055259-0.083911-0.107447-0.12382-0.163729-0.127913-0.180102-0.25992-0.35918-0.391926-0.531096-0.095167-0.12075-0.187265-0.240477-0.283456-0.356111-0.107447-0.1361-0.220011-0.272199-0.327458-0.404206-0.127913-0.147356-0.255827-0.295735-0.38374-0.438998-0.079818-0.092098-0.163729-0.180102-0.248663-0.272199-0.159636-0.171915-0.323365-0.343831-0.491187-0.511653-0.056282-0.056282-0.107447-0.11154-0.163729-0.167822-0.196475-0.191358-0.391926-0.379647-0.591471-0.563842-0.032746-0.027629-0.064468-0.055259-0.096191-0.083911-0.224104-0.203638-0.451278-0.399089-0.683569-0.591471-0.016373-0.01228-0.035816-0.027629-0.052189-0.044002-0.243547-0.199545-0.487094-0.391926-0.738827-0.579191-0.020466-0.01228-0.036839-0.028653-0.056282-0.039909-0.24764-0.184195-0.496304-0.364297-0.75213-0.536212-0.039909-0.027629-0.083911-0.051165-0.12689-0.079818-0.228197-0.155543-0.460488-0.303922-0.695848-0.447185-0.083911-0.052189-0.171915-0.100284-0.25992-0.152473-0.192382-0.115634-0.38374-0.227174-0.579191-0.335644-0.144286-0.079818-0.292666-0.151449-0.440022-0.228197-0.140193-0.071631-0.280386-0.147356-0.423649-0.214894-0.207731-0.104377-0.415462-0.200568-0.62831-0.292666-0.083911-0.039909-0.167822-0.079818-0.255827-0.115634-0.255827-0.11154-0.518816-0.220011-0.782829-0.319272-0.044002-0.016373-0.083911-0.032746-0.12382-0.048095-0.288572-0.112564-0.584308-0.211824-0.880043-0.312108-0.019443-0.004093-0.035816-0.01228-0.055259-0.020466-0.303922-0.095167-0.607844-0.187265-0.915859-0.271176-0.01535-0.004093-0.031722-0.008186-0.048095-0.01228-0.295735-0.083911-0.591471-0.155543-0.8913-0.224104-0.035816-0.007163-0.071631-0.01535-0.107447-0.023536-0.272199-0.060375-0.544399-0.11154-0.823761-0.163729-0.067538-0.01228-0.140193-0.024559-0.207731-0.035816-0.239454-0.039909-0.479931-0.076748-0.719384-0.10847-0.115634-0.01535-0.232291-0.027629-0.347924-0.044002-0.199545-0.019443-0.400113-0.039909-0.599657-0.059352-0.163729-0.01228-0.327458-0.028653-0.49528-0.036839-0.156566-0.011256-0.320295-0.019443-0.479931-0.027629-0.207731-0.008186-0.419556-0.01228-0.63138-0.016373-0.072655 0-0.144286-0.00307-0.220011-0.00307L240.579287 138.581242c-0.851391 0-1.682315 0.055259-2.506077 0.155543-9.937326-1.218758-19.606547 4.852518-22.580275 14.770402l-30.084179 100.284007c-0.008186 0.01535-0.011256 0.035816-0.019443 0.055259l-0.056282 0.188288c-0.019443 0.067538-0.035816 0.140193-0.059352 0.211824-0.064468 0.231267-0.132006 0.467651-0.188288 0.698918-0.039909 0.148379-0.071631 0.295735-0.104377 0.444115-0.039909 0.176009-0.079818 0.347924-0.115634 0.51984-0.039909 0.199545-0.075725 0.399089-0.11154 0.603751-0.020466 0.119727-0.039909 0.23536-0.060375 0.355087-0.035816 0.24457-0.067538 0.488117-0.096191 0.731664-0.011256 0.075725-0.019443 0.156566-0.027629 0.232291-0.031722 0.275269-0.052189 0.547469-0.071631 0.822738l-0.008186 0.152473c-0.020466 0.291642-0.031722 0.583285-0.035816 0.870834 0 0.039909 0 0.083911 0 0.127913-0.004093 0.292666-0.004093 0.584308 0.004093 0.87595l0.007163 0.144286c0.008186 0.279363 0.024559 0.554632 0.044002 0.830925 0.008186 0.075725 0.01228 0.148379 0.020466 0.224104 0.019443 0.24764 0.048095 0.491187 0.075725 0.738827 0.016373 0.112564 0.031722 0.220011 0.044002 0.332575 0.031722 0.203638 0.064468 0.411369 0.096191 0.6191 0.027629 0.152473 0.056282 0.303922 0.088004 0.459464 0.027629 0.160659 0.059352 0.320295 0.096191 0.479931 0.044002 0.195451 0.088004 0.391926 0.13917 0.587378 0.028653 0.116657 0.056282 0.232291 0.088004 0.343831 0.060375 0.232291 0.127913 0.463558 0.196475 0.695848 0.027629 0.079818 0.047072 0.155543 0.071631 0.23536 0.083911 0.255827 0.171915 0.511653 0.25992 0.763386 0.019443 0.056282 0.039909 0.10847 0.059352 0.164752 0.100284 0.26299 0.204661 0.527003 0.312108 0.791016 0.020466 0.044002 0.039909 0.092098 0.060375 0.1361 0.107447 0.25992 0.223081 0.51984 0.347924 0.775666 0.023536 0.055259 0.051165 0.107447 0.075725 0.163729 0.115634 0.239454 0.239454 0.475837 0.363274 0.711198 0.039909 0.079818 0.083911 0.156566 0.12382 0.232291 0.112564 0.207731 0.232291 0.411369 0.352017 0.615007 0.067538 0.112564 0.1361 0.224104 0.203638 0.335644 0.104377 0.164752 0.204661 0.328481 0.312108 0.49221 0.107447 0.159636 0.215918 0.315178 0.323365 0.471744 0.080841 0.11154 0.156566 0.227174 0.240477 0.339738 0.151449 0.211824 0.308015 0.411369 0.467651 0.615007 0.039909 0.052189 0.075725 0.100284 0.11154 0.152473l0.100284 0.12382c0.023536 0.027629 0.044002 0.056282 0.067538 0.083911l60.147892 75.185376c4.137227 5.17179 10.224876 7.862062 16.368806 7.862062 3.089361 0 6.183839-0.698918 9.061376-2.086521 1.027399-0.203638 2.050706-0.471744 3.065825-0.835018l105.152898-37.974893 63.568804 146.208966c-30.982642-20.409842-67.521836-31.594579-105.468077-31.594579-51.241035 0-99.417267 19.954471-135.65254 56.189743-36.231179 36.232203-56.18565 84.407412-56.18565 135.648446 0 51.245128 19.954471 99.416244 56.189743 135.65254 30.915104 30.918173 70.52831 49.970088 113.322975 54.898331 2.258437 0.835018 4.701069 1.291412 7.247054 1.291412l447.345468 0c0.851391 0 1.690502-0.060375 2.514263-0.156566 0.822738 0.100284 1.658779 0.156566 2.51017 0.156566 53.123918 0 96.338139-43.219337 96.338139-96.339162C874.737488 706.883549 873.01117 696.506201 869.700775 686.685531L869.700775 686.685531zM869.700775 686.685531" p-id="5118" fill="#ffffff"></path></svg>